<svg width="292.3" height="58.708" viewBox="0 0 292.3 58.708" xmlns="http://www.w3.org/2000/svg"><g id="svgGroup" stroke-linecap="round" fill-rule="evenodd" font-size="9pt" stroke="#000" stroke-width="0.25mm" fill="#000" style="stroke:#000;stroke-width:0.25mm;fill:#000"><path d="M 231.4 45.608 L 231.2 45.608 Q 230.01 45.608 229.832 45.174 A 0.433 0.433 0 0 1 229.8 45.008 A 0.489 0.489 0 0 1 229.858 44.786 Q 229.941 44.622 230.143 44.446 A 2.407 2.407 0 0 1 230.25 44.358 Q 230.603 44.083 230.925 43.963 A 1.615 1.615 0 0 1 231.1 43.908 Q 231.2 43.908 231.3 43.858 A 0.482 0.482 0 0 1 231.413 43.817 A 0.408 0.408 0 0 1 231.5 43.808 A 9.795 9.795 0 0 1 231.574 43.429 Q 231.839 42.214 232.175 42.578 A 0.553 0.553 0 0 1 232.2 42.608 L 232.6 43.508 A 18.355 18.355 0 0 0 237.833 40.512 A 20.867 20.867 0 0 0 238.2 40.208 A 32.26 32.26 0 0 0 241.576 36.916 A 28.131 28.131 0 0 0 242.7 35.558 Q 244.266 33.538 245.085 32.164 A 13.529 13.529 0 0 0 245.4 31.608 Q 246.3 29.908 246.85 28.358 Q 247.4 26.808 247.4 26.008 A 2.068 2.068 0 0 0 247.378 25.689 Q 247.237 24.789 246.2 25.308 Q 244.983 25.742 243.161 27.122 A 29.796 29.796 0 0 0 242.6 27.558 A 49.32 49.32 0 0 0 239.831 29.941 A 59.395 59.395 0 0 0 238.15 31.558 A 82.186 82.186 0 0 0 236.306 33.459 Q 235.477 34.344 234.763 35.166 A 48.111 48.111 0 0 0 234.3 35.708 A 129.661 129.661 0 0 0 232.948 37.409 Q 232.352 38.171 231.703 39.021 A 245.802 245.802 0 0 0 230.35 40.808 Q 228.1 43.808 226 46.908 Q 224.196 49.572 222.834 51.793 A 87.619 87.619 0 0 0 222.4 52.508 Q 222.1 53.108 221.8 54.008 A 5.3 5.3 0 0 1 221.4 54.856 Q 220.874 55.741 220.1 56.058 A 5.965 5.965 0 0 1 218.628 56.442 A 7.736 7.736 0 0 1 217.6 56.508 Q 216.2 56.508 214.8 56.908 A 350.825 350.825 0 0 1 222.703 38.945 A 309.121 309.121 0 0 1 225.45 33.308 Q 231 22.208 236.5 13.408 Q 239.7 8.208 242.7 5.458 A 32.185 32.185 0 0 1 244.698 3.762 Q 245.678 3.001 246.591 2.441 A 13.803 13.803 0 0 1 248.15 1.608 A 27.009 27.009 0 0 1 249.521 1.034 Q 250.857 0.521 251.832 0.349 A 6.542 6.542 0 0 1 252.1 0.308 Q 245.5 8.208 239.05 18.958 A 224.96 224.96 0 0 0 231.176 33.289 A 277.084 277.084 0 0 0 226.6 42.808 A 1386.437 1386.437 0 0 1 227.4 41.689 Q 228.591 40.026 230.173 37.824 A 3957.317 3957.317 0 0 1 230.4 37.508 A 115.126 115.126 0 0 1 234.731 31.869 A 127.815 127.815 0 0 1 235.4 31.058 A 45.518 45.518 0 0 1 238.747 27.431 A 37.219 37.219 0 0 1 240.95 25.458 A 16.854 16.854 0 0 1 243.067 23.955 Q 244.813 22.92 246.5 22.608 A 3.779 3.779 0 0 1 247.681 22.408 A 3.602 3.602 0 0 1 247.7 22.408 L 248.8 22.408 Q 250.264 22.408 251.231 22.836 A 3.046 3.046 0 0 1 252.35 23.658 Q 253.4 24.908 253.4 26.708 A 9.365 9.365 0 0 1 252.751 30.058 Q 252.286 31.279 251.487 32.529 A 17.396 17.396 0 0 1 251.1 33.108 Q 249.6 35.208 246.9 37.708 A 36.57 36.57 0 0 1 241.846 41.606 A 41.319 41.319 0 0 1 240.8 42.258 Q 237.4 44.308 233.6 45.208 Q 234.5 46.608 235.55 47.958 A 62.346 62.346 0 0 0 236.303 48.907 Q 236.676 49.368 237.012 49.761 A 29.839 29.839 0 0 0 237.4 50.208 Q 238.3 51.208 239.45 51.958 A 5.186 5.186 0 0 0 240.368 52.44 Q 240.998 52.69 241.613 52.707 A 3.237 3.237 0 0 0 241.7 52.708 A 3.646 3.646 0 0 0 244.486 51.452 A 5.288 5.288 0 0 0 244.85 51.008 Q 246.1 49.308 246.8 47.708 A 1.125 1.125 0 0 1 247.318 47.819 Q 247.9 48.116 247.9 49.208 Q 247.9 52.908 245.4 55.008 A 10.377 10.377 0 0 1 243.551 56.267 Q 242.152 56.999 240.724 57.094 A 6.42 6.42 0 0 1 240.3 57.108 A 7.415 7.415 0 0 1 237.939 56.748 A 6.13 6.13 0 0 1 235.3 55.008 Q 233.4 52.908 232.45 50.158 Q 231.511 47.438 231.403 45.648 A 8.233 8.233 0 0 1 231.4 45.608 Z M 107.4 55.208 A 3.769 3.769 0 0 0 108.92 56.301 Q 110.144 56.808 112 56.808 A 9.54 9.54 0 0 0 115.173 56.266 A 11.433 11.433 0 0 0 118.1 54.708 A 25.722 25.722 0 0 0 120.248 52.966 A 30.904 30.904 0 0 0 123.55 49.458 A 70.511 70.511 0 0 0 124.218 48.62 A 63.202 63.202 0 0 0 128.1 43.108 A 40.008 40.008 0 0 1 127.999 43.406 A 36.43 36.43 0 0 1 127.25 45.408 A 12.121 12.121 0 0 0 127.195 45.545 A 10.936 10.936 0 0 0 126.6 47.608 A 22.224 22.224 0 0 0 126.422 48.255 Q 126.174 49.211 126.044 50.083 A 12.391 12.391 0 0 0 125.9 51.908 Q 125.9 53.354 126.268 54.348 A 3.461 3.461 0 0 0 127 55.558 A 4.319 4.319 0 0 0 127.069 55.628 A 3.583 3.583 0 0 0 129.7 56.708 A 6.538 6.538 0 0 0 129.912 56.704 Q 133.426 56.591 137.6 52.708 Q 138.8 51.608 139.95 50.358 Q 141.1 49.108 142.2 47.808 Q 143.4 46.508 144.5 45.158 Q 145.6 43.808 146.7 42.508 A 1.636 1.636 0 0 0 146.836 42.354 A 1.191 1.191 0 0 0 147.1 41.608 A 2.078 2.078 0 0 0 147.083 41.327 Q 146.998 40.708 146.5 40.708 A 0.341 0.341 0 0 0 146.388 40.728 Q 146.274 40.768 146.135 40.884 A 1.997 1.997 0 0 0 146 41.008 Q 145.2 42.108 144.3 43.108 Q 143.4 44.108 142.3 45.208 A 51.423 51.423 0 0 1 142.061 45.482 A 55.902 55.902 0 0 1 138.15 49.508 Q 135.9 51.608 133.7 52.708 Q 132.3 53.508 131.6 53.508 A 1.401 1.401 0 0 1 131.477 53.502 Q 130.6 53.425 130.6 52.208 Q 130.6 51.408 131 50.208 Q 131.4 49.008 132 47.608 A 66.482 66.482 0 0 1 132.874 45.705 A 79.067 79.067 0 0 1 134.55 42.408 A 354.898 354.898 0 0 1 135.422 40.793 Q 135.841 40.023 136.226 39.326 A 192.277 192.277 0 0 1 137.1 37.758 A 168.573 168.573 0 0 0 137.363 37.29 Q 138.08 36.009 138.183 35.762 A 0.194 0.194 0 0 0 138.2 35.708 Q 138.605 34.898 138.157 34.481 A 1.092 1.092 0 0 0 137.9 34.308 A 3.177 3.177 0 0 0 137.572 34.167 Q 136.866 33.908 135.9 33.908 Q 134.9 33.908 133.95 34.208 Q 133.371 34.391 132.997 34.648 A 1.822 1.822 0 0 0 132.6 35.008 A 10.148 10.148 0 0 0 132.487 35.152 Q 132.315 35.375 132.134 35.633 A 17.889 17.889 0 0 0 131.75 36.208 Q 131.3 36.908 130.8 37.708 A 137.993 137.993 0 0 0 130.141 38.474 Q 128.985 39.829 127.3 41.858 Q 125.1 44.508 122.55 47.208 A 54.938 54.938 0 0 1 120.193 49.563 A 41.108 41.108 0 0 1 117.6 51.808 Q 114.3 54.308 112.6 54.308 A 2.105 2.105 0 0 1 112.269 54.283 Q 111.374 54.14 111.165 53.176 A 3.156 3.156 0 0 1 111.1 52.508 A 6.133 6.133 0 0 1 111.12 52.032 Q 111.145 51.708 111.203 51.339 A 13.529 13.529 0 0 1 111.35 50.558 A 8.63 8.63 0 0 1 111.492 49.999 Q 111.631 49.518 111.839 48.983 A 17.677 17.677 0 0 1 112.3 47.908 A 29.389 29.389 0 0 1 112.868 46.62 Q 113.545 45.175 114.456 43.606 A 56.772 56.772 0 0 1 116.5 40.358 Q 119.3 36.208 122.7 32.608 A 53.385 53.385 0 0 1 124.745 30.605 A 44.301 44.301 0 0 1 129 27.108 Q 130.95 25.706 132.64 25.159 A 6.687 6.687 0 0 1 134.7 24.808 A 3.944 3.944 0 0 1 136.686 25.306 Q 137.508 25.773 138.124 26.681 A 7.451 7.451 0 0 1 138.9 28.208 A 3.296 3.296 0 0 0 138.994 28.457 Q 139.399 29.408 140.2 29.408 Q 141.226 29.408 141.442 28.474 A 2.518 2.518 0 0 0 141.5 27.908 A 1.658 1.658 0 0 0 141.469 27.593 Q 141.43 27.395 141.346 27.177 A 3.743 3.743 0 0 0 141.15 26.758 A 2.918 2.918 0 0 0 140.864 26.329 Q 140.507 25.88 139.9 25.408 A 13.741 13.741 0 0 0 138.536 24.402 A 10.763 10.763 0 0 0 136.2 23.258 Q 134.3 22.608 132.3 22.608 A 11.959 11.959 0 0 0 131.587 22.629 Q 129.655 22.744 127.633 23.483 A 19.924 19.924 0 0 0 124.35 25.058 A 32.785 32.785 0 0 0 121.546 26.916 A 38.446 38.446 0 0 0 116.5 31.408 A 57.363 57.363 0 0 0 116.042 31.897 A 52.125 52.125 0 0 0 110.1 39.608 Q 109.344 40.914 108.422 42.929 A 83.973 83.973 0 0 0 107.55 44.908 A 19.633 19.633 0 0 0 106.534 47.907 A 14.203 14.203 0 0 0 106.1 51.308 A 7.548 7.548 0 0 0 106.139 52.079 A 5.783 5.783 0 0 0 107.4 55.208 Z M 252.6 55.208 A 3.769 3.769 0 0 0 254.12 56.301 Q 255.344 56.808 257.2 56.808 A 9.54 9.54 0 0 0 260.373 56.266 A 11.433 11.433 0 0 0 263.3 54.708 A 25.722 25.722 0 0 0 265.448 52.966 A 30.904 30.904 0 0 0 268.75 49.458 A 70.511 70.511 0 0 0 269.418 48.62 A 63.202 63.202 0 0 0 273.3 43.108 A 40.008 40.008 0 0 1 273.199 43.406 A 36.43 36.43 0 0 1 272.45 45.408 A 12.121 12.121 0 0 0 272.395 45.545 A 10.936 10.936 0 0 0 271.8 47.608 A 22.224 22.224 0 0 0 271.622 48.255 Q 271.374 49.211 271.244 50.083 A 12.391 12.391 0 0 0 271.1 51.908 Q 271.1 53.354 271.468 54.348 A 3.461 3.461 0 0 0 272.2 55.558 A 4.319 4.319 0 0 0 272.269 55.628 A 3.583 3.583 0 0 0 274.9 56.708 A 6.538 6.538 0 0 0 275.112 56.704 Q 278.626 56.591 282.8 52.708 Q 284 51.608 285.15 50.358 Q 286.3 49.108 287.4 47.808 Q 288.6 46.508 289.7 45.158 Q 290.8 43.808 291.9 42.508 A 1.636 1.636 0 0 0 292.036 42.354 A 1.191 1.191 0 0 0 292.3 41.608 A 2.078 2.078 0 0 0 292.283 41.327 Q 292.198 40.708 291.7 40.708 A 0.341 0.341 0 0 0 291.588 40.728 Q 291.474 40.768 291.335 40.884 A 1.997 1.997 0 0 0 291.2 41.008 Q 290.4 42.108 289.5 43.108 Q 288.6 44.108 287.5 45.208 A 51.423 51.423 0 0 1 287.261 45.482 A 55.902 55.902 0 0 1 283.35 49.508 Q 281.1 51.608 278.9 52.708 Q 277.5 53.508 276.8 53.508 A 1.401 1.401 0 0 1 276.677 53.502 Q 275.8 53.425 275.8 52.208 Q 275.8 51.408 276.2 50.208 Q 276.6 49.008 277.2 47.608 A 66.482 66.482 0 0 1 278.074 45.705 A 79.067 79.067 0 0 1 279.75 42.408 A 354.898 354.898 0 0 1 280.622 40.793 Q 281.041 40.023 281.426 39.326 A 192.277 192.277 0 0 1 282.3 37.758 A 168.573 168.573 0 0 0 282.563 37.29 Q 283.28 36.009 283.383 35.762 A 0.194 0.194 0 0 0 283.4 35.708 Q 283.805 34.898 283.357 34.481 A 1.092 1.092 0 0 0 283.1 34.308 A 3.177 3.177 0 0 0 282.772 34.167 Q 282.066 33.908 281.1 33.908 Q 280.1 33.908 279.15 34.208 Q 278.571 34.391 278.197 34.648 A 1.822 1.822 0 0 0 277.8 35.008 A 10.148 10.148 0 0 0 277.687 35.152 Q 277.515 35.375 277.334 35.633 A 17.889 17.889 0 0 0 276.95 36.208 Q 276.5 36.908 276 37.708 A 137.993 137.993 0 0 0 275.341 38.474 Q 274.185 39.829 272.5 41.858 Q 270.3 44.508 267.75 47.208 A 54.938 54.938 0 0 1 265.393 49.563 A 41.108 41.108 0 0 1 262.8 51.808 Q 259.5 54.308 257.8 54.308 A 2.105 2.105 0 0 1 257.469 54.283 Q 256.574 54.14 256.365 53.176 A 3.156 3.156 0 0 1 256.3 52.508 A 6.133 6.133 0 0 1 256.32 52.032 Q 256.345 51.708 256.403 51.339 A 13.529 13.529 0 0 1 256.55 50.558 A 8.63 8.63 0 0 1 256.692 49.999 Q 256.831 49.518 257.039 48.983 A 17.677 17.677 0 0 1 257.5 47.908 A 29.389 29.389 0 0 1 258.068 46.62 Q 258.745 45.175 259.656 43.606 A 56.772 56.772 0 0 1 261.7 40.358 Q 264.5 36.208 267.9 32.608 A 53.385 53.385 0 0 1 269.945 30.605 A 44.301 44.301 0 0 1 274.2 27.108 Q 276.15 25.706 277.84 25.159 A 6.687 6.687 0 0 1 279.9 24.808 A 3.944 3.944 0 0 1 281.886 25.306 Q 282.708 25.773 283.324 26.681 A 7.451 7.451 0 0 1 284.1 28.208 A 3.296 3.296 0 0 0 284.194 28.457 Q 284.599 29.408 285.4 29.408 Q 286.426 29.408 286.642 28.474 A 2.518 2.518 0 0 0 286.7 27.908 A 1.658 1.658 0 0 0 286.669 27.593 Q 286.63 27.395 286.546 27.177 A 3.743 3.743 0 0 0 286.35 26.758 A 2.918 2.918 0 0 0 286.064 26.329 Q 285.707 25.88 285.1 25.408 A 13.741 13.741 0 0 0 283.736 24.402 A 10.763 10.763 0 0 0 281.4 23.258 Q 279.5 22.608 277.5 22.608 A 11.959 11.959 0 0 0 276.787 22.629 Q 274.855 22.744 272.833 23.483 A 19.924 19.924 0 0 0 269.55 25.058 A 32.785 32.785 0 0 0 266.746 26.916 A 38.446 38.446 0 0 0 261.7 31.408 A 57.363 57.363 0 0 0 261.242 31.897 A 52.125 52.125 0 0 0 255.3 39.608 Q 254.544 40.914 253.622 42.929 A 83.973 83.973 0 0 0 252.75 44.908 A 19.633 19.633 0 0 0 251.734 47.907 A 14.203 14.203 0 0 0 251.3 51.308 A 7.548 7.548 0 0 0 251.339 52.079 A 5.783 5.783 0 0 0 252.6 55.208 Z M 82.106 56.001 A 3.84 3.84 0 0 0 85.1 57.408 A 3.227 3.227 0 0 0 85.353 57.398 A 2.524 2.524 0 0 0 85.65 57.358 A 3.875 3.875 0 0 0 85.654 57.357 Q 85.779 57.332 85.917 57.294 A 5.439 5.439 0 0 0 86.2 57.208 A 24.306 24.306 0 0 1 86.412 56.794 Q 86.799 56.056 87.45 54.908 A 33.655 33.655 0 0 1 87.799 54.306 Q 88.202 53.628 88.689 52.876 A 62.912 62.912 0 0 1 89.6 51.508 A 9.343 9.343 0 0 1 89.834 51.156 Q 90.466 50.241 92.1 48.158 Q 94.1 45.608 96.95 42.008 Q 99.8 38.408 103 34.358 Q 106.2 30.308 109.25 26.458 Q 112.3 22.608 114.6 19.508 Q 116.1 17.408 117.05 16.058 Q 118 14.708 118.8 13.258 A 35.981 35.981 0 0 0 119.32 12.278 Q 119.913 11.12 120.6 9.608 A 9.967 9.967 0 0 0 120.886 8.866 Q 121.2 7.932 121.2 7.208 A 4.621 4.621 0 0 0 121.177 6.743 A 3.286 3.286 0 0 0 120.05 4.508 A 3.931 3.931 0 0 0 118.625 3.712 A 4.769 4.769 0 0 0 117.2 3.508 Q 116.351 5.66 115.068 8.053 A 65.367 65.367 0 0 1 112.85 11.858 Q 110 16.408 106.4 21.358 Q 102.8 26.308 99 31.308 Q 95.2 36.308 91.8 41.008 A 134.672 134.672 0 0 0 91.074 42.009 Q 90.691 42.541 90.269 43.137 A 264.644 264.644 0 0 0 89.2 44.658 A 206.403 206.403 0 0 0 88.828 45.194 A 187.151 187.151 0 0 0 86.35 48.858 Q 85 50.908 84.5 52.208 Q 84.7 49.008 85.5 45.158 Q 86.3 41.308 87.3 37.708 Q 88.3 34.108 89 31.908 Q 89.7 29.708 90.6 25.758 Q 91.5 21.808 92.25 17.508 Q 92.696 14.955 92.876 12.789 A 33.511 33.511 0 0 0 93 10.008 A 12.001 12.001 0 0 0 92.915 8.534 Q 92.792 7.542 92.492 6.747 A 4.808 4.808 0 0 0 91.2 4.808 A 6.471 6.471 0 0 0 88.962 3.506 A 7.901 7.901 0 0 0 86.7 3.108 A 12.751 12.751 0 0 1 86.852 4.071 Q 86.928 4.694 86.965 5.421 A 29.313 29.313 0 0 1 87 6.908 A 48.558 48.558 0 0 1 86.959 8.865 Q 86.824 12.197 86.25 16.408 Q 85.5 21.908 84.35 27.658 Q 83.2 33.408 82 38.208 A 66.139 66.139 0 0 0 81.683 39.613 Q 81.328 41.261 80.95 43.358 A 36.781 36.781 0 0 0 80.821 44.118 A 33.073 33.073 0 0 0 80.4 49.308 Q 80.4 51.558 80.791 53.222 A 8.859 8.859 0 0 0 81.4 55.008 A 6.37 6.37 0 0 0 82.106 56.001 Z M 197.525 57.98 A 10.689 10.689 0 0 0 201.3 58.708 A 8.546 8.546 0 0 0 201.985 58.68 Q 204.095 58.51 206.5 57.308 A 18.08 18.08 0 0 0 207.881 56.494 A 22.144 22.144 0 0 0 209.9 55.008 Q 211.6 53.608 212.7 52.708 A 27.035 27.035 0 0 0 212.862 52.576 A 28.902 28.902 0 0 0 217.45 47.808 Q 219.6 45.008 221.7 42.508 Q 221.95 42.258 222.075 42.008 A 1.109 1.109 0 0 0 222.2 41.508 Q 222.2 40.92 221.877 40.764 A 0.63 0.63 0 0 0 221.6 40.708 A 0.533 0.533 0 0 0 221.235 40.849 A 0.819 0.819 0 0 0 221.1 41.008 Q 220.2 42.108 219.35 43.158 A 24.392 24.392 0 0 1 218.648 43.986 A 30.164 30.164 0 0 1 217.4 45.308 A 27.697 27.697 0 0 1 217.261 45.455 Q 216.263 46.504 214.771 47.862 A 95.439 95.439 0 0 1 213.2 49.258 Q 210.5 51.608 207.7 53.608 Q 208 52.808 208.35 52.008 Q 208.7 51.208 208.9 50.508 A 33.912 33.912 0 0 0 209.295 48.779 Q 209.6 47.266 209.83 45.508 A 70.389 70.389 0 0 0 210.2 41.908 A 138.59 138.59 0 0 0 210.411 38.769 A 118.238 118.238 0 0 0 210.6 32.208 A 72.122 72.122 0 0 1 210.635 29.932 A 60.651 60.651 0 0 1 210.85 26.358 Q 211.1 23.608 212.1 21.658 A 4.62 4.62 0 0 1 213.868 19.765 A 5.977 5.977 0 0 1 215.5 19.108 Q 216.223 18.891 216.423 18.674 A 0.248 0.248 0 0 0 216.5 18.508 A 0.457 0.457 0 0 0 216.447 18.296 Q 216.35 18.107 216.073 17.944 A 2.413 2.413 0 0 0 215.8 17.808 A 2.455 2.455 0 0 0 215.549 17.7 Q 214.753 17.408 213.3 17.408 A 8.986 8.986 0 0 0 211.421 17.614 A 11.838 11.838 0 0 0 209.5 18.208 Q 207.5 19.008 206.1 20.758 Q 205.181 21.906 204.866 23.593 A 10.413 10.413 0 0 0 204.7 25.508 Q 203.8 26.708 201.85 29.058 Q 200.814 30.306 199.637 31.738 A 1077.87 1077.87 0 0 0 197.45 34.408 Q 195 37.408 192.6 40.358 Q 190.2 43.308 188.2 45.708 Q 187.888 46.145 187.771 46.739 A 3.971 3.971 0 0 0 187.7 47.508 A 2.02 2.02 0 0 0 187.704 47.635 Q 187.734 48.108 188 48.108 A 0.449 0.449 0 0 0 188.178 48.068 Q 188.341 47.997 188.53 47.803 A 2.754 2.754 0 0 0 188.7 47.608 Q 192.4 43.208 196.55 38.158 Q 200.7 33.108 205.4 27.408 Q 205.3 29.208 205.2 32.558 Q 205.1 35.908 204.75 39.908 Q 204.4 43.908 203.65 47.508 A 30.528 30.528 0 0 1 203.321 48.923 Q 202.985 50.222 202.566 51.324 A 15.28 15.28 0 0 1 201.6 53.408 A 7.547 7.547 0 0 1 201.43 53.695 Q 200.171 55.708 198.3 55.708 Q 196.1 55.708 195.1 54.258 Q 194.569 53.487 194.066 52.562 A 26.135 26.135 0 0 1 193.2 50.808 A 12.339 12.339 0 0 0 193.124 50.647 Q 192.857 50.089 192.561 49.618 A 7.39 7.39 0 0 0 191.85 48.658 A 5.364 5.364 0 0 0 191.529 48.321 Q 190.989 47.808 190.6 47.808 A 1.452 1.452 0 0 0 190.541 47.809 Q 189.709 47.843 189.542 48.844 A 3.445 3.445 0 0 0 189.5 49.408 Q 189.5 50.808 190.2 52.008 A 13.177 13.177 0 0 0 191.292 53.652 A 9.976 9.976 0 0 0 193.3 55.608 A 21.856 21.856 0 0 0 194.643 56.526 Q 196.109 57.448 197.525 57.98 Z M 3.323 55.375 A 9.089 9.089 0 0 0 9.3 57.608 A 22.384 22.384 0 0 0 12.287 57.414 A 17.567 17.567 0 0 0 18.95 55.158 Q 23.1 52.708 26.25 48.808 Q 29.4 44.908 31.7 40.308 A 109.857 109.857 0 0 0 33.327 36.914 A 89.795 89.795 0 0 0 35.6 31.508 A 916.639 916.639 0 0 0 36.321 29.689 Q 39.306 22.138 41.05 17.308 Q 43 11.908 43 8.208 A 20.201 20.201 0 0 0 42.956 6.862 A 16.792 16.792 0 0 0 42.55 4.108 Q 42.1 2.208 40.7 0.708 A 16.142 16.142 0 0 1 40.677 0.807 Q 40.367 2.114 39.5 4.858 A 151.91 151.91 0 0 1 39.239 5.676 Q 38.836 6.929 38.361 8.333 A 273.767 273.767 0 0 1 37.3 11.408 Q 36 15.108 34.6 18.958 Q 33.2 22.808 31.9 26.208 Q 31.088 28.333 30.353 30.028 A 55.527 55.527 0 0 1 29.5 31.908 A 168.061 168.061 0 0 1 26.866 37.521 A 130.607 130.607 0 0 1 23.45 44.008 A 55.243 55.243 0 0 1 22.479 45.661 Q 21.23 47.704 19.94 49.387 A 29.335 29.335 0 0 1 17.1 52.608 Q 13.8 55.808 10 55.808 A 5.972 5.972 0 0 1 9.013 55.73 A 4.103 4.103 0 0 1 6.55 54.408 A 7.361 7.361 0 0 1 5.658 53.171 A 8.402 8.402 0 0 1 4.8 51.008 Q 4.535 49.945 4.41 48.996 A 12.237 12.237 0 0 1 4.3 47.408 Q 4.3 45.508 5.1 42.658 A 28.265 28.265 0 0 1 5.418 41.605 A 24.803 24.803 0 0 1 7.2 37.408 Q 6.135 37.408 5.252 37.632 A 4.955 4.955 0 0 0 2.55 39.308 Q 1 41.208 0.5 43.608 A 30.806 30.806 0 0 0 0.231 45.063 Q 0.122 45.75 0.065 46.354 A 13.292 13.292 0 0 0 0 47.608 A 12.88 12.88 0 0 0 0.251 50.218 A 8.694 8.694 0 0 0 2.85 54.958 A 11.886 11.886 0 0 0 3.323 55.375 Z M 148 56.708 Q 146.1 56.708 144.8 55.458 A 3.533 3.533 0 0 1 143.995 54.23 Q 143.55 53.141 143.505 51.482 A 13.989 13.989 0 0 1 143.5 51.108 Q 143.5 50.408 143.6 49.558 Q 143.7 48.708 143.9 47.708 A 24.537 24.537 0 0 1 144.32 45.874 Q 144.9 43.695 146 40.808 Q 147.6 36.608 149.8 31.858 Q 152 27.108 154.3 22.658 A 197.704 197.704 0 0 1 155.969 19.496 Q 156.809 17.941 157.588 16.576 A 105.959 105.959 0 0 1 158.5 15.008 A 81.502 81.502 0 0 1 160.985 11.145 Q 163.3 7.773 165.4 5.608 A 35.715 35.715 0 0 1 167.332 3.75 Q 169.296 2.008 170.957 1.178 A 9.904 9.904 0 0 1 171.1 1.108 Q 173.408 0 175.034 0 A 4.534 4.534 0 0 1 175.3 0.008 Q 173.31 2.228 171.026 5.21 A 134.459 134.459 0 0 0 169.6 7.108 A 96.363 96.363 0 0 0 166.811 11.108 Q 164.969 13.889 163 17.208 A 450.869 450.869 0 0 0 159.008 24.242 Q 157.026 27.811 155.35 31.008 Q 152.1 37.208 149.8 43.708 A 33.648 33.648 0 0 0 149.115 45.946 Q 148.549 48.075 148.504 49.643 A 9.292 9.292 0 0 0 148.5 49.908 A 7.438 7.438 0 0 0 148.588 51.106 Q 148.935 53.22 150.655 53.304 A 2.967 2.967 0 0 0 150.8 53.308 Q 152.596 53.308 154.84 51.516 A 14.698 14.698 0 0 0 154.85 51.508 Q 156.47 50.212 157.597 49.124 A 21.037 21.037 0 0 0 158.4 48.308 Q 160.4 46.308 161.95 44.558 Q 163.5 42.808 165 41.008 A 1.997 1.997 0 0 1 165.135 40.884 Q 165.274 40.768 165.388 40.728 A 0.341 0.341 0 0 1 165.5 40.708 Q 165.998 40.708 166.083 41.327 A 2.078 2.078 0 0 1 166.1 41.608 A 1.191 1.191 0 0 1 165.836 42.354 A 1.636 1.636 0 0 1 165.7 42.508 Q 164.6 43.808 163.55 45.158 Q 162.5 46.508 161.3 47.808 A 25.778 25.778 0 0 1 159.435 49.966 A 28.917 28.917 0 0 1 159.05 50.358 Q 157.8 51.608 156.6 52.708 A 15.854 15.854 0 0 1 154.101 54.615 A 19.702 19.702 0 0 1 152.5 55.508 A 12.816 12.816 0 0 1 150.6 56.285 Q 149.48 56.635 148.432 56.695 A 7.523 7.523 0 0 1 148 56.708 Z M 168.661 57.612 A 10.306 10.306 0 0 0 171.2 57.908 Q 175.9 57.908 179.75 55.608 Q 182.036 54.242 183.74 52.876 A 21.132 21.132 0 0 0 185.8 51.008 Q 187.7 49.008 189.5 46.858 Q 191.3 44.708 193.1 42.508 A 1.636 1.636 0 0 0 193.236 42.354 A 1.191 1.191 0 0 0 193.5 41.608 A 2.078 2.078 0 0 0 193.483 41.327 Q 193.398 40.708 192.9 40.708 A 0.341 0.341 0 0 0 192.788 40.728 Q 192.674 40.768 192.535 40.884 A 1.997 1.997 0 0 0 192.4 41.008 Q 191.6 42.108 190.7 43.158 Q 189.8 44.208 188.8 45.308 L 186.45 47.658 Q 185.4 48.708 184.3 49.708 Q 183.2 50.608 181 52.108 Q 178.8 53.608 176.3 54.758 Q 173.8 55.908 171.6 55.908 A 4.35 4.35 0 0 1 171.257 55.894 A 3.315 3.315 0 0 1 169.25 55.058 A 2.476 2.476 0 0 1 168.62 54.141 Q 168.3 53.368 168.3 52.208 Q 168.3 51.708 168.35 51.258 A 9.937 9.937 0 0 1 168.395 50.913 A 11.884 11.884 0 0 1 168.5 50.308 Q 168.7 49.208 169 47.958 A 38.747 38.747 0 0 1 169.019 47.88 A 42.137 42.137 0 0 1 169.7 45.408 A 43.953 43.953 0 0 0 173.443 44.391 A 36.17 36.17 0 0 0 180.75 41.158 Q 185.6 38.308 189.6 33.208 A 15.067 15.067 0 0 0 189.748 33.016 Q 190.222 32.393 190.575 31.791 A 8.765 8.765 0 0 0 191.2 30.508 A 9.834 9.834 0 0 0 191.372 30.025 Q 191.529 29.542 191.611 29.105 A 4.884 4.884 0 0 0 191.7 28.208 A 6.323 6.323 0 0 0 191.699 28.093 Q 191.655 25.673 189.75 24.208 Q 187.8 22.708 185.1 22.708 A 8.566 8.566 0 0 0 183.515 22.861 Q 182.328 23.084 181.057 23.634 A 17.586 17.586 0 0 0 178.75 24.858 A 29.107 29.107 0 0 0 175.665 27.083 A 37.107 37.107 0 0 0 172.05 30.508 Q 168.8 34.008 166.5 38.208 A 14.811 14.811 0 0 0 166.488 38.228 Q 165.738 39.53 164.964 41.482 A 49.072 49.072 0 0 0 164.25 43.408 A 22.31 22.31 0 0 0 163.549 45.841 A 17.56 17.56 0 0 0 163.1 49.708 A 13.557 13.557 0 0 0 163.102 49.935 Q 163.165 53.671 165.3 55.758 A 7.27 7.27 0 0 0 168.661 57.612 Z M 174.748 41.855 A 70.691 70.691 0 0 0 176.35 40.908 A 43.086 43.086 0 0 0 181.824 36.934 A 49.111 49.111 0 0 0 183.05 35.858 Q 186.3 32.908 188.4 29.508 Q 189.1 28.408 189.1 27.508 A 1.743 1.743 0 0 0 189.009 26.92 Q 188.734 26.15 187.626 26.11 A 3.444 3.444 0 0 0 187.5 26.108 Q 186.4 26.108 184.8 26.908 Q 179.8 29.608 176.2 34.208 Q 172.6 38.808 170.3 44.108 Q 172.278 43.271 174.748 41.855 Z M 43.132 57.043 A 3.246 3.246 0 0 0 43.8 57.108 A 3.38 3.38 0 0 0 44.177 57.087 Q 45.054 56.989 45.625 56.416 A 2.878 2.878 0 0 0 46.2 55.558 A 15.237 15.237 0 0 0 46.618 54.534 A 17.839 17.839 0 0 0 47.3 52.158 A 16.882 16.882 0 0 1 47.379 51.809 Q 47.627 50.77 47.945 50.063 A 4.522 4.522 0 0 1 48.3 49.408 A 0.307 0.307 0 0 0 48.334 49.269 Q 48.334 49.124 48.2 48.958 A 0.453 0.453 0 0 0 48.126 48.883 Q 47.979 48.768 47.786 48.859 A 0.666 0.666 0 0 0 47.7 48.908 Q 47.306 49.189 46.944 49.391 A 5.313 5.313 0 0 1 46.4 49.658 A 15.606 15.606 0 0 0 46.108 49.783 Q 45.613 50.001 45 50.308 Q 44.1 50.708 43.3 51.258 Q 42.5 51.808 41.8 52.308 A 3.187 3.187 0 0 0 41.611 52.516 Q 41.393 52.777 41.15 53.158 A 2.19 2.19 0 0 0 40.936 53.594 A 2.389 2.389 0 0 0 40.8 54.408 Q 40.8 54.608 41 55.208 Q 41.5 55.908 42.1 56.508 Q 42.503 56.911 43.132 57.043 Z" vector-effect="non-scaling-stroke"/></g></svg>
